HIERARCHY
ROOT Hips
{
  OFFSET 0.0 0.0 0.0
  CHANNELS 6 XPOSITION YPOSITION ZPOSITION ZROTATION XROTATION YROTATION 
  JOINT LeftUpLeg
  {
    OFFSET 0.08945800000000001 -0.0866707 0.0010165200000000001
    CHANNELS 3 ZROTATION XROTATION YROTATION 
    JOINT LeftLeg
    {
      OFFSET 0.0 -0.444227 0.013727000000000001
      CHANNELS 3 ZROTATION XROTATION YROTATION 
      JOINT LeftFoot
      {
        OFFSET -0.0025354900000000005 -0.42092399999999996 -0.014605900000000002
        CHANNELS 3 ZROTATION XROTATION YROTATION 
        End Site
        {
          OFFSET -0.0004 -0.0441509 0.08499100000000001
        }
      }
    }
  }
  JOINT Spine
  {
    OFFSET 0.0 0.118905 0.0
    CHANNELS 3 ZROTATION XROTATION YROTATION 
    JOINT Spine1
    {
      OFFSET 0.0 0.25657399999999997 0.00127663
      CHANNELS 3 ZROTATION XROTATION YROTATION 
      End Site
      {
        OFFSET -0.0029 0.21508359999999999 0.02525291
      }
      JOINT RightArm
      {
        OFFSET -0.162727 -0.05365632 0.0010212299999999997
        CHANNELS 3 ZROTATION XROTATION YROTATION 
        JOINT RightForeArm
        {
          OFFSET -0.26364 0.00099144 -0.0142434
          CHANNELS 3 ZROTATION XROTATION YROTATION 
          End Site
          {
            OFFSET -0.220324 0.0008536199999999999 0.010221599999999999
          }
        }
      }
      JOINT LeftArm
      {
        OFFSET 0.162727 -0.053656319900000006 0.0010212299999999997
        CHANNELS 3 ZROTATION XROTATION YROTATION 
        JOINT LeftForeArm
        {
          OFFSET 0.26259699999999997 0.00099144 -0.0142434
          CHANNELS 3 ZROTATION XROTATION YROTATION 
          End Site
          {
            OFFSET 0.220902 0.0008536199999999999 0.010221599999999999
          }
        }
      }
    }
  }
  JOINT RightUpLeg
  {
    OFFSET -0.08945800000000001 -0.0866707 0.0010165200000000001
    CHANNELS 3 ZROTATION XROTATION YROTATION 
    JOINT RightLeg
    {
      OFFSET 0.0 -0.444227 0.013727000000000001
      CHANNELS 3 ZROTATION XROTATION YROTATION 
      JOINT RightFoot
      {
        OFFSET 0.0025354900000000005 -0.42092399999999996 -0.014605900000000002
        CHANNELS 3 ZROTATION XROTATION YROTATION 
        End Site
        {
          OFFSET 0.0004 -0.0441509 0.08499100000000001
        }
      }
    }
  }
}
MOTION
Frames: 8
Frame Time: 0.033333
0.17279699999999998 1.0265581210832497 -0.12326700000000002 2.3455298631081027 0.38968000795238716 -9.93675984134142 -1.7199899761802468 -18.265100633151338 14.17009998985792 8.360669784698882 84.04329890666166 9.480219751934012 -10.957257551459378 -4.905483269925001 0.643922487305299 2.103739885829182 -7.888490269639438 -2.570609996025999 -7.409920258837801 12.341699330180528 0.16973300231959362 85.11321388919832 -6.956503700315205 8.137962075300507 -3.2415198414024875 25.049098941354586 65.53599976554167 -79.08154896524093 4.576751387814165 5.308592923889514 -23.129300105298668 13.865299383051518 -59.632598964007954 6.0609899142720165 -11.40220083342975 0.14829600004225904 -0.4315930102269208 39.73869970438909 0.07200680241739664 -9.656496689128286 -11.120075600894141 -0.12210724049543187 
0.16735 1.0212611210832498 -0.122416 2.393539903114357 -0.3166810004961272 -21.769699724588854 -1.8213098561018624 -17.909199966069483 13.391700042418357 9.46060003354315 85.0529033188271 6.76910038496298 -10.2378072591989 -4.064984096325327 0.6718780246913381 5.319589955340057 -8.28362012821926 -1.7374000216529035 -8.985289730522902 12.199300131269517 1.212159968582804 85.65823566420865 -4.314713741627564 9.85903058103938 -4.028169803585781 25.422998864446715 64.93020296729657 -78.80682509644467 2.061704767242808 6.935383901627879 -23.573699533456377 12.882599939800409 -57.98040352453855 5.687069927499199 -10.835300254960568 0.17519399202507005 -0.37391200932531027 40.760998023126994 1.343739934405103 -9.60993272823537 -12.941803165752432 -0.2915617792042152 
0.160774 1.0187321210832496 -0.119091 2.434010054607152 -0.5550140216009488 -33.357697925142226 -1.7672099553986012 -17.98129944294814 14.295200027148582 11.417200782620744 86.0857030534139 3.405550035971517 -9.074470656742111 -4.283509168630715 0.5770293754823395 9.239639145025006 -8.754679492254823 -0.45047098608217495 -10.773200175026814 12.173100379386995 2.598600111244711 85.89736741723996 -2.253525293997327 11.208823663874703 -4.589929810930881 25.74339962331743 64.13729996692813 -78.91406589660303 0.18386711831158298 7.50523298738439 -23.880999989499006 10.925600478430015 -54.53939861691573 5.0733402914199415 -10.458500062792123 1.132739916296071 -0.2274100011572374 41.24910041668903 4.6005400829196725 -9.258443509583698 -13.893859819065925 -0.37401358170878773 
0.15235300000000002 1.0195631210832496 -0.11446 2.762019857656671 -0.7464969342392282 -44.073998355514604 -1.9500000115750113 -18.373599895664285 15.425599749880277 13.365700073569057 86.47509896818549 2.8187800103199465 -8.677689599930439 -4.617216843551906 0.526996799068968 12.670600259473321 -8.772880238845614 0.9735780457796737 -11.997599522437163 12.290200557612279 3.9188398193150333 85.89172568098553 -0.7075779293791138 12.488026741637942 -5.008669925924146 26.009599416029506 63.431399916207305 -79.32525694501615 -1.0154496667127906 6.977115930569834 -23.70670039206945 8.373880224327333 -50.011502291574196 3.969699969195887 -9.99039048670436 1.9380599871321829 -0.050733597948116736 40.83590129265994 8.281670109211221 -8.606659901430538 -14.001552265483163 -0.36989847277513443 
0.14242200000000002 1.0217881210832498 -0.110714 3.0374700743824725 -1.150100016010422 -52.97190093824907 -2.3868900736271152 -19.056500991902375 14.778599835467064 14.775900203197617 86.25780332993071 5.98473981681211 -8.898605238445331 -5.378050398219843 0.4870549733806442 14.9012000235215 -7.842139752158086 1.895889972309701 -12.056900932358506 12.357600864341963 4.6496896973002615 86.02630772839147 0.32211908505550024 13.709054536919243 -5.384300021310405 26.239401130654585 62.9606018069075 -79.66889059234866 -1.0768686487202492 5.71123727121682 -22.829099630898266 5.8786298398482 -45.205801682120736 2.7370198711905434 -9.043400126207723 1.8813499936706246 0.05459000012674262 39.59310056185193 10.365000749470171 -7.283058886514922 -14.275727157824877 -0.36083929405817033 
0.13136699999999998 1.0242081210832497 -0.108431 3.3318900743109263 -1.4964599760388264 -60.16439749278515 -2.9196800470510174 -20.527300267394583 11.89370039233022 15.23399928328308 85.79649918357723 10.624700763413335 -7.448521072932127 -6.639467236497546 0.3334825988436974 16.401801121909763 -6.163389817856141 2.383590025040941 -11.65300025711074 11.892899552650038 5.0310998402716445 86.56084516302583 0.9792213828596908 14.551048668173504 -5.697769845720847 26.408600284321434 62.78460149237461 -79.5728308118616 0.32608387646656045 4.3568385064467945 -21.1678985870082 4.217329758215169 -40.77510236376307 1.704109893081673 -8.059479786642475 1.3419700616364236 0.0858696051528631 38.00280029664118 11.121900115176182 -5.380166049315255 -14.722134661598568 -0.34258649395538393 
0.118416 1.0275881210832498 -0.10700100000000001 4.246909599963201 -1.6694899053346999 -66.65979811044055 -3.662090020206492 -23.20259998792395 7.838369487736238 12.621500590851038 84.80069858372438 14.16910022091816 -4.44341584993176 -8.070029867589207 0.1536519755892465 17.52569850455161 -4.308660059588817 3.052560096693146 -11.60500024894483 10.766299976417807 5.682270012059973 87.29412744212924 1.613883947919451 14.979890632949218 -6.012589913152837 26.541198161773476 62.89490221728114 -79.10997621256652 2.3856211525453737 3.554206115049083 -18.901701584553205 4.026579650169638 -37.27459967828027 0.9487730398700087 -7.810190688541704 1.108669902774123 0.08089199807351052 36.41710016383644 10.980800359754765 -3.6466170804154747 -14.477856361027648 -0.28550334804956107 
0.103757 1.0308681210832498 -0.10663500000000001 5.700330312885956 -1.7756401163816893 -72.7600996053674 -4.565559695972276 -26.58000046644832 3.410409929009393 7.43592961919721 81.97000181429347 14.50710152350635 -3.4043590217349964 -10.539073243109824 0.050582946920192995 18.1484000209925 -2.445729805449248 3.954829793599123 -11.742199966350169 9.596959637680577 6.647029963456043 87.84580182139116 2.450980513373695 15.481723414290272 -6.448290241628889 26.70239916392224 63.189700012048064 -78.64291421674271 3.701269692832978 3.413284584876322 -16.719599578706703 4.93179998879706 -34.97260053174336 0.6882060187890766 -8.173029974046646 1.1442700226669928 -0.00040125600048797854 35.01240004403703 9.208890487155255 -2.8720706403282668 -13.856958868301286 -0.2445576713162304 
